<svg xmlns="http://www.w3.org/2000/svg" xmlns:xlink="http://www.w3.org/1999/xlink" width="2000" zoomAndPan="magnify" viewBox="0 0 1500 1499.999933" height="2000" preserveAspectRatio="xMidYMid meet" version="1.0"><defs><clipPath id="32d001b287"><path d="M 562.5 414.335938 L 937.5 414.335938 L 937.5 789.335938 L 562.5 789.335938 Z M 562.5 414.335938 " clip-rule="nonzero"/></clipPath><clipPath id="eab7e8899a"><path d="M 750 414.335938 L 937.5 508.085938 L 937.5 695.585938 L 750 789.335938 L 562.5 695.585938 L 562.5 508.085938 Z M 750 414.335938 " clip-rule="nonzero"/></clipPath><clipPath id="e3be0d3660"><path d="M 0.5 0.335938 L 375.5 0.335938 L 375.5 375.335938 L 0.5 375.335938 Z M 0.5 0.335938 " clip-rule="nonzero"/></clipPath><clipPath id="e5742c6c33"><path d="M 188 0.335938 L 375.5 94.085938 L 375.5 281.585938 L 188 375.335938 L 0.5 281.585938 L 0.5 94.085938 Z M 188 0.335938 " clip-rule="nonzero"/></clipPath><clipPath id="498f14d186"><rect x="0" width="376" y="0" height="376"/></clipPath><clipPath id="21bc980232"><path d="M 367.5 712.5 L 742.5 712.5 L 742.5 1087.5 L 367.5 1087.5 Z M 367.5 712.5 " clip-rule="nonzero"/></clipPath><clipPath id="3f5265d61c"><path d="M 555 712.5 L 742.5 806.25 L 742.5 993.75 L 555 1087.5 L 367.5 993.75 L 367.5 806.25 Z M 555 712.5 " clip-rule="nonzero"/></clipPath><clipPath id="c648129590"><path d="M 0.5 0.5 L 375.5 0.5 L 375.5 375.5 L 0.5 375.5 Z M 0.5 0.5 " clip-rule="nonzero"/></clipPath><clipPath id="1db897b907"><path d="M 188 0.5 L 375.5 94.25 L 375.5 281.75 L 188 375.5 L 0.5 281.75 L 0.5 94.25 Z M 188 0.5 " clip-rule="nonzero"/></clipPath><clipPath id="69a8ee88a2"><rect x="0" width="376" y="0" height="376"/></clipPath><clipPath id="fa27453f1c"><path d="M 757.5 712.5 L 1132.5 712.5 L 1132.5 1087.5 L 757.5 1087.5 Z M 757.5 712.5 " clip-rule="nonzero"/></clipPath><clipPath id="87899d016f"><path d="M 945 712.5 L 1132.5 806.25 L 1132.5 993.75 L 945 1087.5 L 757.5 993.75 L 757.5 806.25 Z M 945 712.5 " clip-rule="nonzero"/></clipPath><clipPath id="2b8c986ffc"><path d="M 0.5 0.5 L 375.5 0.5 L 375.5 375.5 L 0.5 375.5 Z M 0.5 0.5 " clip-rule="nonzero"/></clipPath><clipPath id="1230007fbe"><path d="M 188 0.5 L 375.5 94.25 L 375.5 281.75 L 188 375.5 L 0.5 281.75 L 0.5 94.25 Z M 188 0.5 " clip-rule="nonzero"/></clipPath><clipPath id="d98e23ce9f"><rect x="0" width="376" y="0" height="376"/></clipPath></defs><g clip-path="url(#32d001b287)"><g clip-path="url(#eab7e8899a)"><g transform="matrix(1, 0, 0, 1, 562, 414)"><g clip-path="url(#498f14d186)"><g clip-path="url(#e3be0d3660)"><g clip-path="url(#e5742c6c33)"><path fill="#ffffff" d="M 0.5 0.335938 L 375.5 0.335938 L 375.5 375.335938 L 0.5 375.335938 Z M 0.5 0.335938 " fill-opacity="1" fill-rule="nonzero"/></g></g></g></g><path stroke-linecap="butt" transform="matrix(0.75, 0, 0, 0.75, 562.499985, 414.33736)" fill="none" stroke-linejoin="miter" d="M 250.000042 -0.00189708 L 500.000063 124.998114 L 500.000063 374.998135 L 250.000042 499.998146 L 0.0000201333 374.998135 L 0.0000201333 124.998114 Z M 250.000042 -0.00189708 " stroke="#014de1" stroke-width="52" stroke-opacity="1" stroke-miterlimit="4"/></g></g><g clip-path="url(#21bc980232)"><g clip-path="url(#3f5265d61c)"><g transform="matrix(1, 0, 0, 1, 367, 712)"><g clip-path="url(#69a8ee88a2)"><g clip-path="url(#c648129590)"><g clip-path="url(#1db897b907)"><path fill="#ffffff" d="M 0.5 0.5 L 375.5 0.5 L 375.5 375.5 L 0.5 375.5 Z M 0.5 0.5 " fill-opacity="1" fill-rule="nonzero"/></g></g></g></g><path stroke-linecap="butt" transform="matrix(0.75, 0, 0, 0.75, 367.500002, 712.499919)" fill="none" stroke-linejoin="miter" d="M 250.000019 0.000108493 L 500.000041 125.000119 L 500.000041 375.000141 L 250.000019 500.000152 L -0.00000226133 375.000141 L -0.00000226133 125.000119 Z M 250.000019 0.000108493 " stroke="#014de1" stroke-width="52" stroke-opacity="1" stroke-miterlimit="4"/></g></g><g clip-path="url(#fa27453f1c)"><g clip-path="url(#87899d016f)"><g transform="matrix(1, 0, 0, 1, 757, 712)"><g clip-path="url(#d98e23ce9f)"><g clip-path="url(#2b8c986ffc)"><g clip-path="url(#1230007fbe)"><path fill="#ffffff" d="M 0.5 0.5 L 375.5 0.5 L 375.5 375.5 L 0.5 375.5 Z M 0.5 0.5 " fill-opacity="1" fill-rule="nonzero"/></g></g></g></g><path stroke-linecap="butt" transform="matrix(0.75, 0, 0, 0.75, 757.499968, 712.499919)" fill="none" stroke-linejoin="miter" d="M 250.000064 0.000108493 L 500.000086 125.000119 L 500.000086 375.000141 L 250.000064 500.000152 L 0.000042528 375.000141 L 0.000042528 125.000119 Z M 250.000064 0.000108493 " stroke="#014de1" stroke-width="52" stroke-opacity="1" stroke-miterlimit="4"/></g></g></svg>