<svg xmlns="http://www.w3.org/2000/svg" xmlns:xlink="http://www.w3.org/1999/xlink" width="2000" zoomAndPan="magnify" viewBox="0 0 1500 1499.999933" height="2000" preserveAspectRatio="xMidYMid meet" version="1.0"><defs><clipPath id="50e22ce266"><path d="M 442.234375 220.574219 L 1057.984375 220.574219 L 1057.984375 836.324219 L 442.234375 836.324219 Z M 442.234375 220.574219 " clip-rule="nonzero"/></clipPath><clipPath id="1cf6891d6c"><path d="M 749.996094 220.574219 L 1057.761719 374.457031 L 1057.761719 682.21875 L 749.996094 836.101562 L 442.234375 682.21875 L 442.234375 374.457031 Z M 749.996094 220.574219 " clip-rule="nonzero"/></clipPath><clipPath id="145fbbc074"><path d="M 133.648438 712.5 L 742.648438 712.5 L 742.648438 1321.5 L 133.648438 1321.5 Z M 133.648438 712.5 " clip-rule="nonzero"/></clipPath><clipPath id="2773b7186d"><path d="M 438.070312 712.5 L 742.496094 864.710938 L 742.496094 1169.136719 L 438.070312 1321.347656 L 133.648438 1169.136719 L 133.648438 864.710938 Z M 438.070312 712.5 " clip-rule="nonzero"/></clipPath><clipPath id="e1a18df82a"><path d="M 757.5 712.5 L 1366.5 712.5 L 1366.5 1321.5 L 757.5 1321.5 Z M 757.5 712.5 " clip-rule="nonzero"/></clipPath><clipPath id="3a5baa2f16"><path d="M 1061.921875 712.5 L 1366.347656 864.710938 L 1366.347656 1169.136719 L 1061.921875 1321.347656 L 757.5 1169.136719 L 757.5 864.710938 Z M 1061.921875 712.5 " clip-rule="nonzero"/></clipPath></defs><g clip-path="url(#50e22ce266)"><g clip-path="url(#1cf6891d6c)"><path stroke-linecap="butt" transform="matrix(0.75, 0, 0, 0.75, 442.232755, 220.573451)" fill="none" stroke-linejoin="miter" d="M 410.351127 0.00102313 L 820.705303 205.178111 L 820.705303 615.527078 L 410.351127 820.704166 L 0.00215965 615.527078 L 0.00215965 205.178111 Z M 410.351127 0.00102313 " stroke="#014de1" stroke-width="70" stroke-opacity="1" stroke-miterlimit="4"/></g></g><g clip-path="url(#145fbbc074)"><g clip-path="url(#2773b7186d)"><path stroke-linecap="butt" transform="matrix(0.75, 0, 0, 0.75, 133.647005, 712.499919)" fill="none" stroke-linejoin="miter" d="M 405.897778 0.000108493 L 811.798855 202.948043 L 811.798855 608.849119 L 405.897778 811.797053 L 0.00190995 608.849119 L 0.00190995 202.948043 Z M 405.897778 0.000108493 " stroke="#014de1" stroke-width="70" stroke-opacity="1" stroke-miterlimit="4"/></g></g><g clip-path="url(#e1a18df82a)"><g clip-path="url(#3a5baa2f16)"><path stroke-linecap="butt" transform="matrix(0.75, 0, 0, 0.75, 757.499968, 712.499919)" fill="none" stroke-linejoin="miter" d="M 405.895911 0.000108493 L 811.796987 202.948043 L 811.796987 608.849119 L 405.895911 811.797053 L 0.000042528 608.849119 L 0.000042528 202.948043 Z M 405.895911 0.000108493 " stroke="#014de1" stroke-width="70" stroke-opacity="1" stroke-miterlimit="4"/></g></g></svg>